<svg width="29" height="29" viewBox="0 0 29 29" fill="none" xmlns="http://www.w3.org/2000/svg">
<path d="M12.0833 12.0832V14.4998H9.66667V12.0832H12.0833ZM19.3333 14.4998V12.0832H16.9167V14.4998H19.3333ZM25.375 16.9165V26.5832H3.625V16.9165H4.83333V12.0832C4.83333 6.74234 9.15917 2.4165 14.5 2.4165C19.8408 2.4165 24.1667 6.74234 24.1667 12.0832V16.9165H25.375ZM8.45833 19.3332H6.04167V24.1665H8.45833V19.3332ZM13.2917 19.3332H10.875V24.1665H13.2917V19.3332ZM13.2917 4.92984C9.86 5.50984 7.25 8.49442 7.25 12.0832V16.9165H13.2917V4.92984ZM15.7083 16.9165H21.75V12.0832C21.75 8.49442 19.14 5.50984 15.7083 4.92984V16.9165ZM18.125 19.3332H15.7083V24.1665H18.125V19.3332ZM22.9583 19.3332H20.5417V24.1665H22.9583V19.3332Z" fill="#6B51EF"/>
</svg>
