<svg width="28" height="28" viewBox="0 0 28 28" fill="none" xmlns="http://www.w3.org/2000/svg">
<path d="M4.95833 5.83333H8.45833L10.7917 3.5H17.7917L20.125 5.83333H23.625C24.2438 5.83333 24.8373 6.07917 25.2749 6.51675C25.7125 6.95434 25.9583 7.54783 25.9583 8.16667V22.1667C25.9583 22.7855 25.7125 23.379 25.2749 23.8166C24.8373 24.2542 24.2438 24.5 23.625 24.5H4.95833C4.33949 24.5 3.746 24.2542 3.30842 23.8166C2.87083 23.379 2.625 22.7855 2.625 22.1667V8.16667C2.625 7.54783 2.87083 6.95434 3.30842 6.51675C3.746 6.07917 4.33949 5.83333 4.95833 5.83333ZM14.2917 9.33333C12.7446 9.33333 11.2608 9.94791 10.1669 11.0419C9.07292 12.1358 8.45833 13.6196 8.45833 15.1667C8.45833 16.7138 9.07292 18.1975 10.1669 19.2915C11.2608 20.3854 12.7446 21 14.2917 21C15.8388 21 17.3225 20.3854 18.4165 19.2915C19.5104 18.1975 20.125 16.7138 20.125 15.1667C20.125 13.6196 19.5104 12.1358 18.4165 11.0419C17.3225 9.94791 15.8388 9.33333 14.2917 9.33333ZM14.2917 11.6667C15.2199 11.6667 16.1102 12.0354 16.7665 12.6918C17.4229 13.3482 17.7917 14.2384 17.7917 15.1667C17.7917 16.0949 17.4229 16.9852 16.7665 17.6415C16.1102 18.2979 15.2199 18.6667 14.2917 18.6667C13.3634 18.6667 12.4732 18.2979 11.8168 17.6415C11.1604 16.9852 10.7917 16.0949 10.7917 15.1667C10.7917 14.2384 11.1604 13.3482 11.8168 12.6918C12.4732 12.0354 13.3634 11.6667 14.2917 11.6667Z" fill="#6B51EF"/>
</svg>
