<svg width="29" height="29" viewBox="0 0 29 29" fill="none" xmlns="http://www.w3.org/2000/svg">
<path d="M8.45829 2.4165C7.81735 2.4165 7.20266 2.67112 6.74945 3.12433C6.29624 3.57754 6.04163 4.19223 6.04163 4.83317V22.9582C6.04163 23.5991 6.29624 24.2138 6.74945 24.667C7.20266 25.1202 7.81735 25.3748 8.45829 25.3748V26.5832H10.875V25.3748H18.125V26.5832H20.5416V25.3748C21.1826 25.3748 21.7973 25.1202 22.2505 24.667C22.7037 24.2138 22.9583 23.5991 22.9583 22.9582V4.83317C22.9583 4.19223 22.7037 3.57754 22.2505 3.12433C21.7973 2.67112 21.1826 2.4165 20.5416 2.4165H8.45829ZM9.66663 7.24984H12.0833V9.6665H9.66663V7.24984ZM8.45829 13.2915H20.5416V22.9582H8.45829V13.2915ZM9.66663 14.4998V18.1248H12.0833V14.4998H9.66663Z" fill="#6B51EF"/>
</svg>
