<svg width="36" height="36" viewBox="0 0 36 36" fill="none" xmlns="http://www.w3.org/2000/svg">
<path d="M17.9999 13.3134C15.4195 13.3134 13.3136 15.4193 13.3136 17.9998C13.3136 20.5802 15.4195 22.6861 17.9999 22.6861C20.5804 22.6861 22.6863 20.5802 22.6863 17.9998C22.6863 15.4193 20.5804 13.3134 17.9999 13.3134ZM32.0554 17.9998C32.0554 16.0592 32.073 14.1361 31.964 12.199C31.855 9.949 31.3417 7.95212 29.6964 6.30681C28.0476 4.65798 26.0542 4.14821 23.8042 4.03923C21.8636 3.93024 19.9405 3.94782 18.0034 3.94782C16.0628 3.94782 14.1398 3.93024 12.2027 4.03923C9.95266 4.14821 7.95578 4.66149 6.31047 6.30681C4.66164 7.95564 4.15188 9.949 4.04289 12.199C3.93391 14.1396 3.95149 16.0627 3.95149 17.9998C3.95149 19.9369 3.93391 21.8634 4.04289 23.8006C4.15188 26.0506 4.66516 28.0474 6.31047 29.6927C7.9593 31.3416 9.95266 31.8513 12.2027 31.9603C14.1433 32.0693 16.0663 32.0517 18.0034 32.0517C19.9441 32.0517 21.8671 32.0693 23.8042 31.9603C26.0542 31.8513 28.0511 31.3381 29.6964 29.6927C31.3452 28.0439 31.855 26.0506 31.964 23.8006C32.0765 21.8634 32.0554 19.9404 32.0554 17.9998ZM17.9999 25.2103C14.0097 25.2103 10.7894 21.99 10.7894 17.9998C10.7894 14.0095 14.0097 10.7892 17.9999 10.7892C21.9902 10.7892 25.2105 14.0095 25.2105 17.9998C25.2105 21.99 21.9902 25.2103 17.9999 25.2103ZM25.5058 12.1779C24.5741 12.1779 23.8218 11.4256 23.8218 10.4939C23.8218 9.56228 24.5741 8.80993 25.5058 8.80993C26.4374 8.80993 27.1898 9.56228 27.1898 10.4939C27.19 10.7151 27.1467 10.9342 27.0621 11.1387C26.9776 11.3431 26.8536 11.5289 26.6972 11.6853C26.5407 11.8417 26.355 11.9658 26.1505 12.0503C25.9461 12.1348 25.727 12.1782 25.5058 12.1779Z" fill="#6B51EF"/>
</svg>
