<svg width="32" height="32" viewBox="0 0 32 32" fill="none" xmlns="http://www.w3.org/2000/svg">
<path d="M15.9997 8.00016C18.1214 8.00016 20.1562 8.84302 21.6565 10.3433C23.1568 11.8436 23.9997 13.8784 23.9997 16.0002C23.9997 18.9602 22.3863 21.5468 19.9997 22.9335V25.3335C19.9997 25.6871 19.8592 26.0263 19.6091 26.2763C19.3591 26.5264 19.02 26.6668 18.6663 26.6668H13.333C12.9794 26.6668 12.6402 26.5264 12.3902 26.2763C12.1402 26.0263 11.9997 25.6871 11.9997 25.3335V22.9335C9.61301 21.5468 7.99967 18.9602 7.99967 16.0002C7.99967 13.8784 8.84253 11.8436 10.3428 10.3433C11.8431 8.84302 13.8779 8.00016 15.9997 8.00016ZM18.6663 28.0002V29.3335C18.6663 29.6871 18.5259 30.0263 18.2758 30.2763C18.0258 30.5264 17.6866 30.6668 17.333 30.6668H14.6663C14.3127 30.6668 13.9736 30.5264 13.7235 30.2763C13.4735 30.0263 13.333 29.6871 13.333 29.3335V28.0002H18.6663ZM26.6663 14.6668H30.6663V17.3335H26.6663V14.6668ZM1.33301 14.6668H5.33301V17.3335H1.33301V14.6668ZM17.333 1.3335V5.3335H14.6663V1.3335H17.333ZM6.55967 4.66683L9.39968 7.52016L7.50634 9.40016L4.66634 6.5735L6.55967 4.66683ZM22.5997 7.50683L25.4263 4.66683L27.333 6.5735L24.493 9.40016L22.5997 7.50683Z" fill="#6B51EF"/>
</svg>
