<svg width="52" height="18" viewBox="0 0 52 18" fill="none" xmlns="http://www.w3.org/2000/svg">
<path d="M0.523821 13.3728V0.395975H2.48175V11.6873H8.36188V13.3728H0.523821ZM14.7214 13.5692C13.809 13.5692 13.0127 13.3601 12.3326 12.9419C11.6525 12.5237 11.1245 11.9387 10.7485 11.1868C10.3726 10.4349 10.1846 9.55621 10.1846 8.55085C10.1846 7.54126 10.3726 6.65839 10.7485 5.90226C11.1245 5.14612 11.6525 4.55895 12.3326 4.14075C13.0127 3.72255 13.809 3.51346 14.7214 3.51346C15.6338 3.51346 16.4301 3.72255 17.1102 4.14075C17.7903 4.55895 18.3183 5.14612 18.6943 5.90226C19.0703 6.65839 19.2582 7.54126 19.2582 8.55085C19.2582 9.55621 19.0703 10.4349 18.6943 11.1868C18.3183 11.9387 17.7903 12.5237 17.1102 12.9419C16.4301 13.3601 15.6338 13.5692 14.7214 13.5692ZM14.7277 11.9788C15.3191 11.9788 15.8091 11.8225 16.1978 11.5099C16.5864 11.1973 16.8737 10.7812 17.0595 10.2617C17.2496 9.74208 17.3447 9.1697 17.3447 8.54451C17.3447 7.92355 17.2496 7.35328 17.0595 6.8337C16.8737 6.30989 16.5864 5.88958 16.1978 5.57277C15.8091 5.25595 15.3191 5.09754 14.7277 5.09754C14.1321 5.09754 13.6379 5.25595 13.245 5.57277C12.8564 5.88958 12.5671 6.30989 12.377 6.8337C12.1911 7.35328 12.0982 7.92355 12.0982 8.54451C12.0982 9.1697 12.1911 9.74208 12.377 10.2617C12.5671 10.7812 12.8564 11.1973 13.245 11.5099C13.6379 11.8225 14.1321 11.9788 14.7277 11.9788ZM25.632 17.2253C24.859 17.2253 24.1937 17.1239 23.6361 16.9212C23.0827 16.7184 22.6307 16.4502 22.2801 16.1164C21.9295 15.7827 21.6676 15.4173 21.4944 15.0203L23.1228 14.3486C23.2369 14.5345 23.389 14.7309 23.579 14.9379C23.7734 15.1491 24.0353 15.3286 24.3647 15.4765C24.6985 15.6243 25.1272 15.6982 25.651 15.6982C26.3691 15.6982 26.9626 15.5229 27.4315 15.1723C27.9004 14.8259 28.1349 14.2726 28.1349 13.5122V11.5986H28.0145C27.9004 11.8056 27.7357 12.0358 27.5202 12.2893C27.309 12.5427 27.0176 12.7624 26.6458 12.9483C26.2741 13.1341 25.7904 13.2271 25.1948 13.2271C24.426 13.2271 23.7332 13.0475 23.1165 12.6885C22.504 12.3252 22.0182 11.7908 21.6591 11.0854C21.3043 10.3757 21.1269 9.50341 21.1269 8.46847C21.1269 7.43354 21.3022 6.54645 21.6528 5.80721C22.0076 5.06797 22.4934 4.50192 23.1102 4.10907C23.7269 3.71199 24.426 3.51346 25.2075 3.51346C25.8115 3.51346 26.2994 3.61484 26.6712 3.8176C27.0429 4.01614 27.3323 4.24847 27.5393 4.5146C27.7505 4.78072 27.9131 5.01517 28.0272 5.21793H28.1666V3.64018H30.0231V13.5882C30.0231 14.4246 29.8288 15.1111 29.4402 15.6475C29.0515 16.184 28.5256 16.5811 27.8624 16.8388C27.2034 17.0965 26.46 17.2253 25.632 17.2253ZM25.613 11.6557C26.1579 11.6557 26.6184 11.5289 26.9943 11.2755C27.3745 11.0178 27.6618 10.6503 27.8561 10.173C28.0546 9.69139 28.1539 9.11478 28.1539 8.44313C28.1539 7.78837 28.0567 7.21177 27.8624 6.71331C27.6681 6.21485 27.383 5.82622 27.007 5.54742C26.631 5.2644 26.1664 5.12289 25.613 5.12289C25.0427 5.12289 24.5675 5.27073 24.1873 5.56643C23.8072 5.8579 23.5199 6.25498 23.3256 6.75766C23.1355 7.26035 23.0405 7.82217 23.0405 8.44313C23.0405 9.08099 23.1376 9.6407 23.3319 10.1223C23.5262 10.6038 23.8135 10.9798 24.1937 11.2501C24.5781 11.5205 25.0512 11.6557 25.613 11.6557ZM36.823 17.2253C36.05 17.2253 35.3847 17.1239 34.8271 16.9212C34.2737 16.7184 33.8217 16.4502 33.4711 16.1164C33.1205 15.7827 32.8586 15.4173 32.6854 15.0203L34.3138 14.3486C34.4279 14.5345 34.5799 14.7309 34.77 14.9379C34.9644 15.1491 35.2263 15.3286 35.5557 15.4765C35.8895 15.6243 36.3182 15.6982 36.842 15.6982C37.5601 15.6982 38.1536 15.5229 38.6225 15.1723C39.0914 14.8259 39.3259 14.2726 39.3259 13.5122V11.5986H39.2055C39.0914 11.8056 38.9267 12.0358 38.7112 12.2893C38.5 12.5427 38.2086 12.7624 37.8368 12.9483C37.4651 13.1341 36.9814 13.2271 36.3858 13.2271C35.617 13.2271 34.9242 13.0475 34.3075 12.6885C33.695 12.3252 33.2092 11.7908 32.8501 11.0854C32.4953 10.3757 32.3179 9.50341 32.3179 8.46847C32.3179 7.43354 32.4932 6.54645 32.8438 5.80721C33.1986 5.06797 33.6844 4.50192 34.3011 4.10907C34.9179 3.71199 35.617 3.51346 36.3985 3.51346C37.0025 3.51346 37.4904 3.61484 37.8622 3.8176C38.2339 4.01614 38.5233 4.24847 38.7303 4.5146C38.9415 4.78072 39.1041 5.01517 39.2181 5.21793H39.3575V3.64018H41.2141V13.5882C41.2141 14.4246 41.0198 15.1111 40.6312 15.6475C40.2425 16.184 39.7166 16.5811 39.0534 16.8388C38.3944 17.0965 37.651 17.2253 36.823 17.2253ZM36.804 11.6557C37.3489 11.6557 37.8094 11.5289 38.1853 11.2755C38.5655 11.0178 38.8528 10.6503 39.0471 10.173C39.2456 9.69139 39.3449 9.11478 39.3449 8.44313C39.3449 7.78837 39.2477 7.21177 39.0534 6.71331C38.8591 6.21485 38.574 5.82622 38.198 5.54742C37.822 5.2644 37.3574 5.12289 36.804 5.12289C36.2337 5.12289 35.7585 5.27073 35.3783 5.56643C34.9981 5.8579 34.7109 6.25498 34.5166 6.75766C34.3265 7.26035 34.2314 7.82217 34.2314 8.44313C34.2314 9.08099 34.3286 9.6407 34.5229 10.1223C34.7172 10.6038 35.0045 10.9798 35.3847 11.2501C35.7691 11.5205 36.2422 11.6557 36.804 11.6557ZM46.7657 13.5882C46.149 13.5882 45.5914 13.4742 45.093 13.2461C44.5945 13.0137 44.1995 12.6779 43.9081 12.2386C43.6208 11.7993 43.4772 11.2607 43.4772 10.6228C43.4772 10.0737 43.5828 9.62169 43.794 9.26685C44.0052 8.91202 44.2903 8.63111 44.6494 8.42412C45.0085 8.21713 45.4098 8.06084 45.8533 7.95523C46.2969 7.84963 46.7489 7.76936 47.2093 7.71445C47.7922 7.64686 48.2653 7.59195 48.6286 7.5497C48.9919 7.50324 49.2559 7.42931 49.4207 7.32793C49.5854 7.22655 49.6678 7.06181 49.6678 6.8337V6.78934C49.6678 6.23597 49.5115 5.80721 49.1989 5.50307C48.8905 5.19892 48.4301 5.04685 47.8176 5.04685C47.1797 5.04685 46.677 5.18836 46.3095 5.47138C45.9462 5.75018 45.6949 6.06066 45.5555 6.40283L43.775 5.9973C43.9862 5.40591 44.2946 4.92857 44.7001 4.56529C45.1098 4.19778 45.5809 3.93165 46.1131 3.76691C46.6454 3.59794 47.2051 3.51346 47.7922 3.51346C48.1809 3.51346 48.5927 3.55992 49.0278 3.65285C49.4671 3.74156 49.8769 3.90631 50.2571 4.14709C50.6415 4.38787 50.9562 4.73214 51.2012 5.17991C51.4462 5.62346 51.5687 6.20006 51.5687 6.90973V13.3728H49.7185V12.0422H49.6424C49.5199 12.2872 49.3362 12.528 49.0912 12.7645C48.8462 13.0011 48.5315 13.1975 48.1471 13.3538C47.7627 13.5101 47.3022 13.5882 46.7657 13.5882ZM47.1776 12.0675C47.7014 12.0675 48.1492 11.964 48.5209 11.757C48.8969 11.55 49.182 11.2797 49.3763 10.946C49.5749 10.608 49.6741 10.2469 49.6741 9.86247V8.60787C49.6065 8.67546 49.4756 8.73882 49.2813 8.79796C49.0912 8.85288 48.8736 8.90146 48.6286 8.9437C48.3836 8.98172 48.145 9.01762 47.9126 9.05142C47.6803 9.08099 47.486 9.10633 47.3297 9.12745C46.9622 9.17392 46.6263 9.25207 46.3222 9.3619C46.0223 9.47173 45.7815 9.63014 45.5999 9.83712C45.4224 10.0399 45.3337 10.3102 45.3337 10.6482C45.3337 11.1171 45.5069 11.4719 45.8533 11.7127C46.1997 11.9492 46.6411 12.0675 47.1776 12.0675Z" fill="black"/>
</svg>
