<svg width="74" height="104" viewBox="0 0 74 104" fill="none" xmlns="http://www.w3.org/2000/svg">
<g clip-path="url(#clip0_651_1947)">
<path d="M14.41 101.693C7.7435 101.464 2.33973 95.7207 2.33973 88.8841V15.134C2.28242 11.7921 3.56353 8.5635 5.9033 6.1532C8.24308 3.74291 11.4514 2.34673 14.8278 2.26954C16.4778 2.26349 18.1127 2.57989 19.6388 3.2006C21.1649 3.8213 22.5522 4.73409 23.7211 5.8866C24.8899 7.03912 25.8174 8.40868 26.4502 9.91673C27.083 11.4248 27.4088 13.0416 27.4087 14.6746V18.6809C27.3874 19.2437 27.5407 19.7994 27.848 20.2734C28.1554 20.7474 28.6021 21.1168 29.1279 21.332C29.6538 21.5471 30.2337 21.5978 30.7895 21.477C31.3453 21.3563 31.8504 21.0699 32.2368 20.6565L47.1483 5.95429C48.3073 4.77708 49.6912 3.83956 51.2196 3.19622C52.7479 2.55289 54.3902 2.21655 56.051 2.20676C57.7118 2.19697 59.358 2.51393 60.8939 3.1392C62.4299 3.76448 63.825 4.68562 64.9981 5.84908C66.1713 7.01255 67.0991 8.39515 67.7277 9.91655C68.3563 11.438 68.6731 13.0678 68.6597 14.7114C68.6463 16.355 68.303 17.9796 67.6498 19.4908C66.9965 21.002 66.0463 22.3697 64.8544 23.5143L31.2062 56.7781C29.9953 57.9742 29.0349 59.3951 28.3801 60.9593C27.7252 62.5236 27.3888 64.2003 27.3902 65.8935V89.2976C27.3902 92.5876 26.0696 95.7429 23.7189 98.0693C21.3682 100.396 18.18 101.703 14.8557 101.703L14.41 101.693ZM55.9967 4.13489C55.4187 4.1366 54.8415 4.17959 54.2697 4.26353C51.9917 4.64952 49.8973 5.74387 48.2903 7.38776L7.30711 47.9384C5.31246 49.9236 4.19282 52.6094 4.19282 55.409C4.19282 58.2086 5.31246 60.8944 7.30711 62.8795C8.00742 63.5618 8.79385 64.1517 9.64688 64.6346C10.2358 64.9625 10.8583 65.2274 11.5038 65.4249C12.5953 65.7915 13.7402 65.9777 14.8928 65.9762C15.5599 65.9762 16.2254 65.9116 16.8798 65.7832C18.9906 65.4007 20.9338 64.3911 22.4507 62.8887L63.3596 22.4024C65.4549 20.3205 66.6332 17.5028 66.6371 14.5643C66.6396 13.1982 66.3684 11.8451 65.8393 10.5834C65.3102 9.32159 64.5337 8.17612 63.5545 7.21317C62.5632 6.23076 61.3847 5.45281 60.0873 4.92441C58.79 4.39601 57.3996 4.12765 55.9967 4.13489Z" fill="#6B51EF"/>
<path d="M14.8557 4.59441C16.1969 4.59441 17.525 4.85585 18.7642 5.36382C20.0033 5.87178 21.1292 6.61632 22.0776 7.55491C23.026 8.49351 23.7783 9.60778 24.2916 10.8341C24.8048 12.0604 25.069 13.3748 25.069 14.7022V18.7086C25.0697 19.7899 25.4171 20.8431 26.0612 21.7166C26.7052 22.5901 27.6127 23.2389 28.653 23.5695L5.63588 46.3304C5.2766 46.6873 4.93868 47.0647 4.62384 47.4606V15.1341C4.57399 12.3983 5.62018 9.75421 7.53386 7.77938C9.44753 5.80455 12.0732 4.65952 14.8371 4.59441H14.8557ZM25.2918 63.2839C25.1428 64.146 25.0682 65.019 25.069 65.8936V89.2977C25.069 91.9784 23.993 94.5494 22.0776 96.445C20.1622 98.3406 17.5644 99.4055 14.8557 99.4055H14.4936C11.8025 99.2383 9.27927 98.054 7.44571 96.0974C5.61215 94.1408 4.60853 91.5617 4.64241 88.8934V63.3666C4.95127 63.7649 5.28297 64.1454 5.63588 64.506C6.46684 65.3308 7.40327 66.0444 8.42133 66.6287C9.11016 67.0046 9.83479 67.3124 10.5847 67.5476C11.9199 67.989 13.318 68.2155 14.7257 68.2184C15.5484 68.222 16.3695 68.1451 17.1769 67.9886C19.7341 67.505 22.0857 66.2725 23.927 64.4509L25.1619 63.2288L25.2918 63.2839ZM55.8667 -0.0551758C51.9601 -0.0132346 48.2287 1.55573 45.4863 4.30955L30.5749 19.0669C30.4816 19.1602 30.3547 19.2131 30.2221 19.2139C30.0866 19.2139 29.9568 19.1607 29.861 19.0659C29.7652 18.9711 29.7114 18.8426 29.7114 18.7086V14.7022C29.7114 10.8029 28.1463 7.06335 25.3603 4.30614C22.5743 1.54894 18.7957 -4.28632e-05 14.8557 -4.28632e-05H14.8C6.56437 0.0275238 0 6.97433 0 15.1341V88.8842C0 96.8694 6.26725 103.715 14.3358 103.991H14.8557C16.8066 103.991 18.7384 103.61 20.5407 102.872C22.3431 102.133 23.9808 101.05 25.3603 99.6846C26.7398 98.3193 27.834 96.6986 28.5806 94.9148C29.3272 93.1311 29.7114 91.2192 29.7114 89.2885V65.8936C29.7223 63.0942 30.8502 60.4124 32.8497 58.4322L36.6936 54.628L39.3212 52L45.0964 46.2845L66.4514 25.104C68.5309 23.0484 69.9474 20.4285 70.5219 17.5759C71.0964 14.7233 70.8029 11.7661 69.6787 9.07858C68.5545 6.39104 66.6501 4.09392 64.2063 2.47788C61.7626 0.861831 58.8894 -0.000513118 55.9503 -4.28632e-05L55.8667 -0.0551758ZM14.8557 63.679C13.9466 63.6792 13.0435 63.5333 12.1817 63.2472C11.7025 63.0917 11.2393 62.8917 10.7982 62.6499C10.12 62.2706 9.49557 61.8041 8.94128 61.2624C8.03212 60.3605 7.34577 59.263 6.93576 58.0554C6.38363 56.368 6.38363 54.5512 6.93576 52.8637C7.34576 51.6208 8.04549 50.4907 8.97842 49.5649L49.9245 9.00508C51.1966 7.71293 52.8463 6.84838 54.6412 6.53327C55.09 6.46798 55.543 6.4342 55.9967 6.43219C58.1971 6.42318 60.3111 7.2792 61.874 8.81211C63.4393 10.4272 64.2961 12.589 64.2579 14.8265C64.2196 17.0641 63.2893 19.196 61.6698 20.7577L20.8166 61.2348C19.6331 62.4085 18.1181 63.1998 16.4713 63.5045C15.9544 63.6047 15.4288 63.654 14.9021 63.6515L14.8557 63.679Z" fill="#6B51EF"/>
<path d="M59.1538 101.703C56.9531 101.7 54.7918 101.125 52.8856 100.037C50.9793 98.9485 49.395 97.3843 48.2906 95.5005L37.5573 77.1227C35.8951 74.2725 35.445 70.8857 36.3061 67.7071C37.1671 64.5286 39.2688 61.8188 42.1486 60.1737C45.0285 58.5287 48.4507 58.0833 51.6625 58.9355C54.8742 59.7876 57.6123 61.8675 59.2745 64.7177L69.9985 83.0955C71.0981 84.9805 71.6773 87.1187 71.6778 89.2954C71.6782 91.472 71.1 93.6105 70.0011 95.496C68.9022 97.3815 67.3214 98.9476 65.4173 100.037C63.5133 101.127 61.3532 101.701 59.1538 101.703Z" fill="#6B51EF"/>
<path d="M48.3922 60.7937C50.1877 60.7954 51.9512 61.263 53.5071 62.1498C55.0629 63.0366 56.3567 64.3116 57.2592 65.8476L67.9925 84.2254C69.3469 86.5479 69.7135 89.3077 69.0118 91.8978C68.3101 94.4878 66.5975 96.6959 64.2507 98.0363C61.904 99.3767 59.1153 99.7395 56.4982 99.0451C53.8811 98.3506 51.65 96.6557 50.2956 94.3332L39.5624 75.9554C38.6666 74.4199 38.1947 72.6782 38.1941 70.9052C38.1934 69.1322 38.664 67.3902 39.5586 65.8541C40.4532 64.3179 41.7404 63.0417 43.2909 62.1535C44.8414 61.2653 46.6007 60.7963 48.3922 60.7937ZM48.3922 56.1992C45.7858 56.2019 43.226 56.8831 40.9697 58.1746C38.7135 59.4661 36.8403 61.3223 35.5382 63.5569C34.2362 65.7915 33.5511 68.3257 33.5518 70.9052C33.5524 73.4847 34.2388 76.0187 35.5421 78.2526L46.2753 96.6304C47.2374 98.3275 48.5304 99.8187 50.0793 101.018C51.6282 102.216 53.4022 103.099 55.2983 103.614C57.1945 104.129 59.1751 104.267 61.1253 104.019C63.0756 103.77 64.9567 103.142 66.6595 102.169C68.3623 101.195 69.853 99.8976 71.0451 98.35C72.2373 96.8024 73.1071 95.0361 73.6042 93.1533C74.1013 91.2705 74.2158 89.3088 73.941 87.3819C73.6663 85.455 73.0077 83.6013 72.0035 81.9282L61.2796 63.5504C59.9738 61.3121 58.095 59.4541 55.8325 58.1635C53.57 56.873 51.0037 56.1954 48.3922 56.1992Z" fill="#6B51EF"/>
</g>
<defs>
<clipPath id="clip0_651_1947">
<rect width="74" height="104" fill="white"/>
</clipPath>
</defs>
</svg>
