<svg width="44" height="62" viewBox="0 0 44 62" fill="none" xmlns="http://www.w3.org/2000/svg">
<g clip-path="url(#clip0_651_1948)">
<path d="M8.53847 59.1869C7.64711 59.1831 6.76288 59.0276 5.9235 58.727C4.56181 58.2215 3.38965 57.3061 2.5679 56.1064C1.74616 54.9067 1.31512 53.4815 1.33395 52.0265V8.50266C1.30962 7.01734 1.75569 5.5625 2.60809 4.3471C3.4605 3.13169 4.67538 2.21826 6.07826 1.73798C6.87202 1.47483 7.7024 1.33946 8.53847 1.33691C10.4492 1.33691 12.2817 2.09751 13.6328 3.45137C14.9839 4.80524 15.743 6.64148 15.743 8.55613V14.8181L27.0888 3.45455C28.4426 2.10082 30.2776 1.34143 32.1902 1.34343C34.1027 1.34544 35.9362 2.10868 37.2872 3.46525C38.6381 4.82182 39.396 6.66059 39.394 8.57707C39.392 10.4935 38.6303 12.3307 37.2765 13.6845L17.851 33.1496C17.1804 33.818 16.6488 34.6131 16.2869 35.4888C15.9251 36.3645 15.7402 37.3034 15.743 38.2512V51.9891C15.743 53.9038 14.9839 55.74 13.6328 57.0939C12.2817 58.4477 10.4492 59.2083 8.53847 59.2083V59.1869ZM32.1853 2.40643C31.4943 2.40821 30.8079 2.52013 30.152 2.73798C29.2781 3.03813 28.4879 3.54218 27.8466 4.20856L4.19975 27.8983C3.05327 29.0536 2.40973 30.6166 2.40973 32.2459C2.40973 33.8751 3.05327 35.4382 4.19975 36.5934C4.60227 36.9905 5.05429 37.3338 5.54459 37.6148C5.88307 37.8057 6.24087 37.9598 6.61193 38.0747C7.23925 38.2881 7.89735 38.3965 8.55982 38.3956C8.94325 38.3956 9.32576 38.358 9.70187 38.2833C10.9151 38.0606 12.032 37.4731 12.9039 36.5988L36.5934 12.8342C37.4293 12.0202 38.0066 10.9767 38.2525 9.835C38.4984 8.69326 38.4021 7.50415 37.9756 6.41711C37.5318 5.238 36.7398 4.22247 35.7053 3.50592C34.6708 2.78936 33.4429 2.40581 32.1853 2.40643Z" fill="#6B51EF"/>
<path d="M8.53854 2.67364C9.30944 2.67364 10.0728 2.8258 10.785 3.12141C11.4972 3.41702 12.1444 3.85031 12.6895 4.39654C13.2346 4.94276 13.667 5.59123 13.962 6.3049C14.257 7.01858 14.4089 7.78349 14.4089 8.55597V15.7805L3.23921 26.9623C3.03271 27.17 2.83848 27.3897 2.65752 27.6201V8.5025C2.64213 7.29703 3.00395 6.11701 3.69216 5.12815C4.38036 4.1393 5.36038 3.39128 6.49459 2.98915C7.15379 2.76907 7.84371 2.65536 8.53854 2.65225V2.67364ZM14.521 36.8232C14.4459 37.2811 14.4084 37.7443 14.4089 38.2083V51.9462C14.4089 53.5063 13.7904 55.0024 12.6895 56.1056C11.5886 57.2087 10.0954 57.8285 8.53854 57.8285C7.79788 57.8256 7.0632 57.6954 6.36651 57.4435C5.26508 57.0306 4.31824 56.2861 3.65603 55.3123C2.99383 54.3385 2.64875 53.1832 2.66819 52.005V36.8767C2.84571 37.1085 3.03637 37.3299 3.23921 37.5398C3.71683 38.0198 4.25506 38.4351 4.84022 38.7751V38.7751C5.23614 38.9939 5.65264 39.173 6.08366 39.3099C6.8511 39.5667 7.6547 39.6985 8.46382 39.7002C8.9367 39.7023 9.40863 39.6576 9.87271 39.5665C11.3425 39.2851 12.6942 38.5678 13.7525 37.5077L14.4462 36.8125L14.521 36.8232ZM32.1106 -0.0322266C29.8652 -0.00781851 27.7205 0.905256 26.1442 2.50787L17.0719 11.5987V8.55597C17.0719 6.28675 16.1723 4.11047 14.571 2.50589C12.9696 0.901303 10.7978 -0.000141423 8.5332 -0.000141423C7.5556 0.00366341 6.58477 0.162491 5.65673 0.470445C3.99221 1.04284 2.54963 2.12556 1.53339 3.56522C0.517142 5.00488 -0.0212417 6.72847 -0.00548718 8.4918V52.0264C-0.0217709 53.7584 0.49662 55.4531 1.4787 56.8785C2.46079 58.3039 3.85855 59.3903 5.48062 59.9889C6.46274 60.3379 7.4965 60.5187 8.53854 60.5237C10.8031 60.5237 12.975 59.6222 14.5763 58.0176C16.1776 56.4131 17.0772 54.2368 17.0772 51.9676V38.2296C17.0781 36.6712 17.6962 35.1768 18.7956 34.0746L21.0904 31.7751L22.6007 30.2618L25.9201 26.9356L38.1945 14.6094C39.3896 13.4131 40.2038 11.8885 40.534 10.2283C40.8642 8.56824 40.6956 6.84729 40.0494 5.28325C39.4033 3.71921 38.3086 2.38238 36.904 1.44191C35.4994 0.501434 33.848 -0.000415091 32.1587 -0.000141423L32.1106 -0.0322266ZM8.53854 37.0585C8.01602 37.0586 7.49695 36.9737 7.00157 36.8072C6.72617 36.7167 6.45993 36.6003 6.20641 36.4596C5.81657 36.2389 5.45766 35.9674 5.13907 35.6521C4.61651 35.1273 4.22201 34.4886 3.98635 33.7858C3.669 32.8038 3.669 31.7465 3.98635 30.7644C4.22201 30.0411 4.6242 29.3834 5.16042 28.8447L28.7859 5.12818C29.2845 4.61591 29.8945 4.22608 30.5683 3.98915C31.0844 3.81507 31.6249 3.72481 32.1693 3.72177C33.1639 3.72839 34.1328 4.03918 34.9463 4.61257C35.7598 5.18595 36.3792 5.99459 36.7215 6.93031C37.0451 7.77179 37.1165 8.68963 36.9269 9.57119C36.7373 10.4527 36.295 11.2596 35.6542 11.8929L11.938 35.6521C11.2578 36.3351 10.387 36.7956 9.44043 36.973C9.14337 37.0313 8.84125 37.06 8.53854 37.0585Z" fill="#6B51EF"/>
<path d="M34.0002 59.187C32.7353 59.1852 31.493 58.8508 30.3973 58.2174C29.3017 57.5841 28.391 56.6738 27.7563 55.5774L21.587 44.8823C20.6317 43.2236 20.373 41.2526 20.8679 39.4028C21.3628 37.5531 22.5708 35.976 24.226 35.0187C25.8813 34.0614 27.8483 33.8022 29.6943 34.2981C31.5404 34.794 33.1142 36.0044 34.0695 37.6631L40.2334 48.3582C40.8655 49.4552 41.1984 50.6996 41.1986 51.9663C41.1989 53.233 40.8665 54.4775 40.2349 55.5748C39.6033 56.6721 38.6947 57.5835 37.6003 58.2176C36.5059 58.8516 35.2643 59.186 34.0002 59.187V59.187Z" fill="#6B51EF"/>
<path d="M27.8146 35.3794C28.8466 35.3804 29.8602 35.6525 30.7545 36.1686C31.6487 36.6846 32.3923 37.4266 32.9111 38.3205L39.0803 49.0157C39.8588 50.3673 40.0695 51.9734 39.6662 53.4807C39.2629 54.988 38.2785 56.273 36.9296 57.0531C35.5808 57.8331 33.9779 58.0443 32.4737 57.6401C30.9695 57.236 29.6871 56.2496 28.9086 54.898L22.7394 44.2029C22.2246 43.3093 21.9533 42.2957 21.9529 41.2639C21.9526 40.232 22.223 39.2183 22.7372 38.3243C23.2514 37.4303 23.9913 36.6876 24.8825 36.1707C25.7737 35.6538 26.7849 35.3809 27.8146 35.3794ZM27.8146 32.7056C26.3165 32.7071 24.8452 33.1036 23.5483 33.8552C22.2515 34.6067 21.1748 35.687 20.4264 36.9874C19.6781 38.2879 19.2843 39.7627 19.2847 41.2639C19.2851 42.765 19.6796 44.2397 20.4286 45.5397L26.5978 56.2349C27.1509 57.2225 27.894 58.0904 28.7843 58.788C29.6746 59.4857 30.6942 59.9993 31.784 60.2991C32.8739 60.5989 34.0123 60.6789 35.1333 60.5345C36.2542 60.3901 37.3354 60.0242 38.3142 59.4579C39.2929 58.8916 40.1497 58.1362 40.8349 57.2356C41.5201 56.335 42.0201 55.307 42.3058 54.2113C42.5915 53.1156 42.6573 51.974 42.4994 50.8526C42.3415 49.7313 41.9629 48.6524 41.3858 47.6788L35.2219 36.9836C34.4714 35.6811 33.3915 34.5998 32.0911 33.8487C30.7906 33.0977 29.3156 32.7034 27.8146 32.7056Z" fill="#6B51EF"/>
</g>
<defs>
<clipPath id="clip0_651_1948">
<rect width="42.5333" height="60.5238" fill="white"/>
</clipPath>
</defs>
</svg>
