<svg width="120" height="53" viewBox="0 0 120 53" fill="none" xmlns="http://www.w3.org/2000/svg">
<path d="M33.3332 18.5465L31.4532 16.6665L23.9998 24.1198L16.5465 16.6665L14.6665 18.5465L22.1198 25.9998L14.6665 33.4532L16.5465 35.3332L23.9998 27.8798L31.4532 35.3332L33.3332 33.4532L25.8798 25.9998L33.3332 18.5465Z" fill="white"/>
<path d="M52.688 30.448C53.104 31.072 53.632 31.536 54.272 31.84C54.928 32.128 55.6 32.272 56.288 32.272C56.672 32.272 57.064 32.216 57.464 32.104C57.864 31.976 58.224 31.792 58.544 31.552C58.88 31.312 59.152 31.016 59.36 30.664C59.568 30.312 59.672 29.904 59.672 29.44C59.672 28.784 59.464 28.288 59.048 27.952C58.632 27.6 58.112 27.312 57.488 27.088C56.88 26.848 56.208 26.624 55.472 26.416C54.752 26.192 54.08 25.888 53.456 25.504C52.848 25.12 52.336 24.608 51.92 23.968C51.504 23.312 51.296 22.432 51.296 21.328C51.296 20.832 51.4 20.304 51.608 19.744C51.832 19.184 52.176 18.672 52.64 18.208C53.104 17.744 53.696 17.36 54.416 17.056C55.152 16.736 56.032 16.576 57.056 16.576C57.984 16.576 58.872 16.704 59.72 16.96C60.568 17.216 61.312 17.736 61.952 18.52L60.08 20.224C59.792 19.776 59.384 19.416 58.856 19.144C58.328 18.872 57.728 18.736 57.056 18.736C56.416 18.736 55.88 18.824 55.448 19C55.032 19.16 54.696 19.376 54.44 19.648C54.184 19.904 54 20.184 53.888 20.488C53.792 20.792 53.744 21.072 53.744 21.328C53.744 22.048 53.952 22.6 54.368 22.984C54.784 23.368 55.296 23.68 55.904 23.92C56.528 24.16 57.2 24.376 57.92 24.568C58.656 24.76 59.328 25.032 59.936 25.384C60.56 25.72 61.08 26.184 61.496 26.776C61.912 27.352 62.12 28.152 62.12 29.176C62.12 29.992 61.96 30.728 61.64 31.384C61.336 32.04 60.92 32.592 60.392 33.04C59.864 33.488 59.24 33.832 58.52 34.072C57.8 34.312 57.032 34.432 56.216 34.432C55.128 34.432 54.096 34.24 53.12 33.856C52.144 33.472 51.368 32.88 50.792 32.08L52.688 30.448ZM70.8239 24.496H67.7279V29.656C67.7279 29.976 67.7359 30.296 67.7519 30.616C67.7679 30.92 67.8239 31.2 67.9199 31.456C68.0319 31.696 68.1919 31.896 68.3999 32.056C68.6239 32.2 68.9439 32.272 69.3599 32.272C69.6159 32.272 69.8799 32.248 70.1519 32.2C70.4239 32.152 70.6719 32.064 70.8959 31.936V33.904C70.6399 34.048 70.3039 34.144 69.8879 34.192C69.4879 34.256 69.1759 34.288 68.9519 34.288C68.1199 34.288 67.4719 34.176 67.0079 33.952C66.5599 33.712 66.2239 33.408 65.9999 33.04C65.7919 32.672 65.6639 32.264 65.6159 31.816C65.5839 31.352 65.5679 30.888 65.5679 30.424V24.496H63.0719V22.624H65.5679V19.432H67.7279V22.624H70.8239V24.496ZM73.4188 24.016C74.0268 23.456 74.7308 23.04 75.5308 22.768C76.3308 22.48 77.1308 22.336 77.9308 22.336C78.7628 22.336 79.4748 22.44 80.0668 22.648C80.6748 22.856 81.1708 23.136 81.5548 23.488C81.9388 23.84 82.2188 24.248 82.3948 24.712C82.5868 25.16 82.6828 25.632 82.6828 26.128V31.936C82.6828 32.336 82.6908 32.704 82.7068 33.04C82.7228 33.376 82.7468 33.696 82.7788 34H80.8588C80.8108 33.424 80.7868 32.848 80.7868 32.272H80.7388C80.2588 33.008 79.6908 33.528 79.0348 33.832C78.3788 34.136 77.6188 34.288 76.7548 34.288C76.2268 34.288 75.7228 34.216 75.2428 34.072C74.7628 33.928 74.3388 33.712 73.9708 33.424C73.6188 33.136 73.3388 32.784 73.1308 32.368C72.9228 31.936 72.8188 31.44 72.8188 30.88C72.8188 30.144 72.9788 29.528 73.2988 29.032C73.6348 28.536 74.0828 28.136 74.6428 27.832C75.2188 27.512 75.8828 27.288 76.6348 27.16C77.4028 27.016 78.2188 26.944 79.0828 26.944H80.6668V26.464C80.6668 26.176 80.6108 25.888 80.4988 25.6C80.3868 25.312 80.2188 25.056 79.9948 24.832C79.7708 24.592 79.4908 24.408 79.1548 24.28C78.8188 24.136 78.4188 24.064 77.9548 24.064C77.5388 24.064 77.1708 24.104 76.8508 24.184C76.5468 24.264 76.2668 24.368 76.0108 24.496C75.7548 24.608 75.5228 24.744 75.3148 24.904C75.1068 25.064 74.9068 25.216 74.7148 25.36L73.4188 24.016ZM79.5148 28.528C79.0028 28.528 78.4748 28.56 77.9308 28.624C77.4028 28.672 76.9148 28.776 76.4668 28.936C76.0348 29.096 75.6748 29.32 75.3868 29.608C75.1148 29.896 74.9788 30.264 74.9788 30.712C74.9788 31.368 75.1948 31.84 75.6268 32.128C76.0748 32.416 76.6748 32.56 77.4268 32.56C78.0188 32.56 78.5228 32.464 78.9388 32.272C79.3548 32.064 79.6908 31.8 79.9468 31.48C80.2028 31.16 80.3868 30.808 80.4988 30.424C80.6108 30.024 80.6668 29.632 80.6668 29.248V28.528H79.5148ZM75.5308 16.864C75.8988 16.864 76.2348 16.992 76.5388 17.248C76.8588 17.504 77.0188 17.832 77.0188 18.232C77.0188 18.664 76.8748 19.024 76.5868 19.312C76.3148 19.6 75.9628 19.744 75.5308 19.744C75.0988 19.744 74.7388 19.6 74.4508 19.312C74.1788 19.024 74.0428 18.664 74.0428 18.232C74.0428 17.832 74.1948 17.504 74.4988 17.248C74.8188 16.992 75.1628 16.864 75.5308 16.864ZM80.4268 16.864C80.7948 16.864 81.1308 16.992 81.4348 17.248C81.7548 17.504 81.9148 17.832 81.9148 18.232C81.9148 18.664 81.7708 19.024 81.4828 19.312C81.2108 19.6 80.8588 19.744 80.4268 19.744C79.9948 19.744 79.6348 19.6 79.3468 19.312C79.0748 19.024 78.9388 18.664 78.9388 18.232C78.9388 17.832 79.0908 17.504 79.3948 17.248C79.7148 16.992 80.0588 16.864 80.4268 16.864ZM85.5761 22.624H87.7361V24.376H87.7841C88.0561 23.768 88.5281 23.28 89.2001 22.912C89.8721 22.528 90.6481 22.336 91.5281 22.336C92.0721 22.336 92.5921 22.424 93.0881 22.6C93.6001 22.76 94.0401 23.016 94.4081 23.368C94.7921 23.72 95.0961 24.176 95.3201 24.736C95.5441 25.28 95.6561 25.928 95.6561 26.68V34H93.4961V27.28C93.4961 26.752 93.4241 26.304 93.2801 25.936C93.1361 25.552 92.9441 25.248 92.7041 25.024C92.4641 24.784 92.1841 24.616 91.8641 24.52C91.5601 24.408 91.2401 24.352 90.9041 24.352C90.4561 24.352 90.0401 24.424 89.6561 24.568C89.2721 24.712 88.9361 24.944 88.6481 25.264C88.3601 25.568 88.1361 25.96 87.9761 26.44C87.8161 26.92 87.7361 27.488 87.7361 28.144V34H85.5761V22.624ZM110.072 33.904C110.072 34.768 109.92 35.552 109.616 36.256C109.328 36.976 108.912 37.592 108.368 38.104C107.824 38.632 107.168 39.04 106.4 39.328C105.632 39.616 104.784 39.76 103.856 39.76C102.768 39.76 101.768 39.608 100.856 39.304C99.96 39 99.104 38.472 98.288 37.72L99.752 35.896C100.312 36.504 100.92 36.96 101.576 37.264C102.232 37.584 102.976 37.744 103.808 37.744C104.608 37.744 105.272 37.624 105.8 37.384C106.328 37.16 106.744 36.864 107.048 36.496C107.368 36.128 107.592 35.704 107.72 35.224C107.848 34.76 107.912 34.288 107.912 33.808V32.128H107.84C107.424 32.816 106.856 33.328 106.136 33.664C105.432 33.984 104.688 34.144 103.904 34.144C103.072 34.144 102.296 34 101.576 33.712C100.872 33.408 100.264 33 99.752 32.488C99.24 31.96 98.84 31.344 98.552 30.64C98.264 29.92 98.12 29.144 98.12 28.312C98.12 27.48 98.256 26.704 98.528 25.984C98.8 25.248 99.184 24.608 99.68 24.064C100.192 23.52 100.8 23.096 101.504 22.792C102.224 22.488 103.024 22.336 103.904 22.336C104.672 22.336 105.416 22.504 106.136 22.84C106.872 23.176 107.448 23.648 107.864 24.256H107.912V22.624H110.072V33.904ZM104.168 24.352C103.592 24.352 103.072 24.456 102.608 24.664C102.144 24.856 101.752 25.128 101.432 25.48C101.112 25.816 100.864 26.232 100.688 26.728C100.512 27.208 100.424 27.736 100.424 28.312C100.424 29.464 100.76 30.392 101.432 31.096C102.104 31.784 103.016 32.128 104.168 32.128C105.32 32.128 106.232 31.784 106.904 31.096C107.576 30.392 107.912 29.464 107.912 28.312C107.912 27.736 107.824 27.208 107.648 26.728C107.472 26.232 107.224 25.816 106.904 25.48C106.584 25.128 106.192 24.856 105.728 24.664C105.264 24.456 104.744 24.352 104.168 24.352Z" fill="white"/>
</svg>
