<svg width="118" height="53" viewBox="0 0 118 53" fill="none" xmlns="http://www.w3.org/2000/svg">
<path d="M12 18H36V20.6667H12V18ZM12 24.6667H36V27.3333H12V24.6667ZM12 31.3333H36V34H12V31.3333Z" fill="black"/>
<path d="M52.016 17.008H55.448L60.848 29.872H60.944L66.296 17.008H69.728V34H67.424V20.032H67.376L61.64 34H60.104L54.368 20.032H54.32V34H52.016V17.008ZM74.774 29.104C74.774 29.6 74.878 30.056 75.086 30.472C75.31 30.872 75.598 31.216 75.95 31.504C76.302 31.792 76.71 32.016 77.174 32.176C77.638 32.336 78.118 32.416 78.614 32.416C79.286 32.416 79.87 32.264 80.366 31.96C80.862 31.64 81.318 31.224 81.734 30.712L83.366 31.96C82.166 33.512 80.486 34.288 78.326 34.288C77.43 34.288 76.614 34.136 75.878 33.832C75.158 33.528 74.542 33.112 74.03 32.584C73.534 32.04 73.15 31.408 72.878 30.688C72.606 29.952 72.47 29.16 72.47 28.312C72.47 27.464 72.614 26.68 72.902 25.96C73.206 25.224 73.614 24.592 74.126 24.064C74.654 23.52 75.278 23.096 75.998 22.792C76.718 22.488 77.502 22.336 78.35 22.336C79.358 22.336 80.206 22.512 80.894 22.864C81.598 23.216 82.174 23.68 82.622 24.256C83.07 24.816 83.39 25.456 83.582 26.176C83.79 26.88 83.894 27.6 83.894 28.336V29.104H74.774ZM81.59 27.376C81.574 26.896 81.494 26.456 81.35 26.056C81.222 25.656 81.022 25.312 80.75 25.024C80.478 24.72 80.134 24.488 79.718 24.328C79.318 24.152 78.846 24.064 78.302 24.064C77.774 24.064 77.286 24.168 76.838 24.376C76.406 24.568 76.038 24.824 75.734 25.144C75.43 25.464 75.19 25.824 75.014 26.224C74.854 26.608 74.774 26.992 74.774 27.376H81.59ZM86.2379 22.624H88.3979V24.376H88.4459C88.7179 23.768 89.1899 23.28 89.8619 22.912C90.5339 22.528 91.3099 22.336 92.1899 22.336C92.7339 22.336 93.2539 22.424 93.7499 22.6C94.2619 22.76 94.7019 23.016 95.0699 23.368C95.4539 23.72 95.7579 24.176 95.9819 24.736C96.2059 25.28 96.3179 25.928 96.3179 26.68V34H94.1579V27.28C94.1579 26.752 94.0859 26.304 93.9419 25.936C93.7979 25.552 93.6059 25.248 93.3659 25.024C93.1259 24.784 92.8459 24.616 92.5259 24.52C92.2219 24.408 91.9019 24.352 91.5659 24.352C91.1179 24.352 90.7019 24.424 90.3179 24.568C89.9339 24.712 89.5979 24.944 89.3099 25.264C89.0219 25.568 88.7979 25.96 88.6379 26.44C88.4779 26.92 88.3979 27.488 88.3979 28.144V34H86.2379V22.624ZM97.9659 22.624H100.462L103.846 31.504H103.894L107.11 22.624H109.438L104.038 36.448C103.846 36.944 103.646 37.392 103.438 37.792C103.23 38.208 102.982 38.56 102.694 38.848C102.406 39.136 102.054 39.36 101.638 39.52C101.238 39.68 100.742 39.76 100.15 39.76C99.8299 39.76 99.5019 39.736 99.1659 39.688C98.8459 39.656 98.5339 39.576 98.2299 39.448L98.4939 37.48C98.9259 37.656 99.3579 37.744 99.7899 37.744C100.126 37.744 100.406 37.696 100.63 37.6C100.87 37.52 101.07 37.392 101.23 37.216C101.406 37.056 101.55 36.864 101.662 36.64C101.774 36.416 101.886 36.16 101.998 35.872L102.694 34.072L97.9659 22.624Z" fill="black"/>
</svg>
