<svg width="29" height="29" viewBox="0 0 29 29" fill="none" xmlns="http://www.w3.org/2000/svg">
<path d="M4.83329 6.0415C4.19235 6.0415 3.57766 6.29612 3.12445 6.74933C2.67124 7.20254 2.41663 7.81723 2.41663 8.45817V20.5415C2.41663 21.1824 2.67124 21.7971 3.12445 22.2503C3.57766 22.7036 4.19235 22.9582 4.83329 22.9582H24.1666C24.8076 22.9582 25.4223 22.7036 25.8755 22.2503C26.3287 21.7971 26.5833 21.1824 26.5833 20.5415V8.45817C26.5833 7.81723 26.3287 7.20254 25.8755 6.74933C25.4223 6.29612 24.8076 6.0415 24.1666 6.0415H4.83329ZM4.83329 8.45817H19.3333V20.5415H4.83329V8.45817ZM22.9583 8.45817C23.2788 8.45817 23.5861 8.58548 23.8127 8.81208C24.0393 9.03869 24.1666 9.34603 24.1666 9.6665C24.1666 9.98697 24.0393 10.2943 23.8127 10.5209C23.5861 10.7475 23.2788 10.8748 22.9583 10.8748C22.6378 10.8748 22.3305 10.7475 22.1039 10.5209C21.8773 10.2943 21.75 9.98697 21.75 9.6665C21.75 9.34603 21.8773 9.03869 22.1039 8.81208C22.3305 8.58548 22.6378 8.45817 22.9583 8.45817ZM15.7083 10.8748V18.1248H18.125V10.8748H15.7083ZM22.9583 13.2915C23.2788 13.2915 23.5861 13.4188 23.8127 13.6454C24.0393 13.872 24.1666 14.1794 24.1666 14.4998C24.1666 14.8203 24.0393 15.1277 23.8127 15.3543C23.5861 15.5809 23.2788 15.7082 22.9583 15.7082C22.6378 15.7082 22.3305 15.5809 22.1039 15.3543C21.8773 15.1277 21.75 14.8203 21.75 14.4998C21.75 14.1794 21.8773 13.872 22.1039 13.6454C22.3305 13.4188 22.6378 13.2915 22.9583 13.2915Z" fill="#6B51EF"/>
</svg>
