<svg width="29" height="29" viewBox="0 0 29 29" fill="none" xmlns="http://www.w3.org/2000/svg">
<path d="M10.0896 3.62511C11.5154 3.41969 13.0258 4.97844 13.4608 7.12928C13.8958 9.26803 13.1104 11.1772 11.6846 11.3947C10.2708 11.6122 8.7483 10.0534 8.30122 7.90261C7.85414 5.76386 8.66372 3.85469 10.0896 3.62511ZM18.7291 3.62511C20.1671 3.85469 20.9646 5.76386 20.5416 7.90261C20.0825 10.0534 18.5721 11.6122 17.1462 11.3947C15.7083 11.1772 14.9229 9.26803 15.37 7.12928C15.805 4.97844 17.3154 3.41969 18.7291 3.62511ZM3.62497 9.18344C5.00247 8.59136 6.87539 9.66678 7.85414 11.5397C8.77247 13.4489 8.4583 15.4547 7.09289 16.0468C5.72747 16.6389 3.86664 15.5755 2.91205 13.6784C1.95747 11.7814 2.2958 9.76344 3.62497 9.18344ZM25.375 9.18344C26.7041 9.76344 27.0425 11.7814 26.0879 13.6784C25.1333 15.5755 23.2725 16.6389 21.9071 16.0468C20.5416 15.4547 20.2275 13.4489 21.1458 11.5397C22.1246 9.66678 23.9975 8.59136 25.375 9.18344ZM23.3571 22.2093C23.4054 23.3451 22.5354 24.6018 21.4962 25.073C19.3333 26.0639 16.7716 24.0097 14.3671 24.0097C11.9625 24.0097 9.37664 26.1484 7.24997 25.073C6.04164 24.4809 5.20789 22.9101 5.36497 21.6051C5.58247 19.8047 7.74539 18.838 9.02622 17.5209C10.73 15.8172 11.9383 12.6151 14.3671 12.6151C16.7837 12.6151 18.0646 15.7689 19.6958 17.5209C21.0371 18.9951 23.2725 20.2397 23.3571 22.2093Z" fill="#6B51EF"/>
</svg>
