<svg width="29" height="29" viewBox="0 0 29 29" fill="none" xmlns="http://www.w3.org/2000/svg">
<path d="M24.1667 24.1665C24.4871 24.1665 24.7945 24.2938 25.0211 24.5204C25.2477 24.747 25.375 25.0544 25.375 25.3748C25.375 25.6953 25.2477 26.0027 25.0211 26.2293C24.7945 26.4559 24.4871 26.5832 24.1667 26.5832C23.8462 26.5832 23.5389 26.4559 23.3122 26.2293C23.0856 26.0027 22.9583 25.6953 22.9583 25.3748C22.9583 25.0544 23.0856 24.747 23.3122 24.5204C23.5389 24.2938 23.8462 24.1665 24.1667 24.1665ZM19.3333 24.1665C19.6538 24.1665 19.9611 24.2938 20.1878 24.5204C20.4144 24.747 20.5417 25.0544 20.5417 25.3748C20.5417 25.6953 20.4144 26.0027 20.1878 26.2293C19.9611 26.4559 19.6538 26.5832 19.3333 26.5832C19.0129 26.5832 18.7055 26.4559 18.4789 26.2293C18.2523 26.0027 18.125 25.6953 18.125 25.3748C18.125 25.0544 18.2523 24.747 18.4789 24.5204C18.7055 24.2938 19.0129 24.1665 19.3333 24.1665ZM14.5 24.1665C14.8205 24.1665 15.1278 24.2938 15.3544 24.5204C15.581 24.747 15.7083 25.0544 15.7083 25.3748C15.7083 25.6953 15.581 26.0027 15.3544 26.2293C15.1278 26.4559 14.8205 26.5832 14.5 26.5832C14.1795 26.5832 13.8722 26.4559 13.6456 26.2293C13.419 26.0027 13.2917 25.6953 13.2917 25.3748C13.2917 25.0544 13.419 24.747 13.6456 24.5204C13.8722 24.2938 14.1795 24.1665 14.5 24.1665ZM9.66667 24.1665C9.98714 24.1665 10.2945 24.2938 10.5211 24.5204C10.7477 24.747 10.875 25.0544 10.875 25.3748C10.875 25.6953 10.7477 26.0027 10.5211 26.2293C10.2945 26.4559 9.98714 26.5832 9.66667 26.5832C9.3462 26.5832 9.03885 26.4559 8.81225 26.2293C8.58564 26.0027 8.45833 25.6953 8.45833 25.3748C8.45833 25.0544 8.58564 24.747 8.81225 24.5204C9.03885 24.2938 9.3462 24.1665 9.66667 24.1665ZM4.83333 24.1665C5.1538 24.1665 5.46115 24.2938 5.68775 24.5204C5.91436 24.747 6.04167 25.0544 6.04167 25.3748C6.04167 25.6953 5.91436 26.0027 5.68775 26.2293C5.46115 26.4559 5.1538 26.5832 4.83333 26.5832C4.51286 26.5832 4.20552 26.4559 3.97891 26.2293C3.75231 26.0027 3.625 25.6953 3.625 25.3748C3.625 25.0544 3.75231 24.747 3.97891 24.5204C4.20552 24.2938 4.51286 24.1665 4.83333 24.1665ZM7.25 20.5415C7.57047 20.5415 7.87781 20.6688 8.10442 20.8954C8.33103 21.122 8.45833 21.4294 8.45833 21.7498C8.45833 22.0703 8.33103 22.3777 8.10442 22.6043C7.87781 22.8309 7.57047 22.9582 7.25 22.9582C6.92953 22.9582 6.62219 22.8309 6.39558 22.6043C6.16897 22.3777 6.04167 22.0703 6.04167 21.7498C6.04167 21.4294 6.16897 21.122 6.39558 20.8954C6.62219 20.6688 6.92953 20.5415 7.25 20.5415ZM12.0833 20.5415C12.4038 20.5415 12.7111 20.6688 12.9378 20.8954C13.1644 21.122 13.2917 21.4294 13.2917 21.7498C13.2917 22.0703 13.1644 22.3777 12.9378 22.6043C12.7111 22.8309 12.4038 22.9582 12.0833 22.9582C11.7629 22.9582 11.4555 22.8309 11.2289 22.6043C11.0023 22.3777 10.875 22.0703 10.875 21.7498C10.875 21.4294 11.0023 21.122 11.2289 20.8954C11.4555 20.6688 11.7629 20.5415 12.0833 20.5415ZM16.9167 20.5415C17.2371 20.5415 17.5445 20.6688 17.7711 20.8954C17.9977 21.122 18.125 21.4294 18.125 21.7498C18.125 22.0703 17.9977 22.3777 17.7711 22.6043C17.5445 22.8309 17.2371 22.9582 16.9167 22.9582C16.5962 22.9582 16.2889 22.8309 16.0622 22.6043C15.8356 22.3777 15.7083 22.0703 15.7083 21.7498C15.7083 21.4294 15.8356 21.122 16.0622 20.8954C16.2889 20.6688 16.5962 20.5415 16.9167 20.5415ZM21.75 20.5415C22.0705 20.5415 22.3778 20.6688 22.6044 20.8954C22.831 21.122 22.9583 21.4294 22.9583 21.7498C22.9583 22.0703 22.831 22.3777 22.6044 22.6043C22.3778 22.8309 22.0705 22.9582 21.75 22.9582C21.4295 22.9582 21.1222 22.8309 20.8956 22.6043C20.669 22.3777 20.5417 22.0703 20.5417 21.7498C20.5417 21.4294 20.669 21.122 20.8956 20.8954C21.1222 20.6688 21.4295 20.5415 21.75 20.5415ZM9.66667 16.9165C9.98714 16.9165 10.2945 17.0438 10.5211 17.2704C10.7477 17.497 10.875 17.8044 10.875 18.1248C10.875 18.4453 10.7477 18.7527 10.5211 18.9793C10.2945 19.2059 9.98714 19.3332 9.66667 19.3332C9.3462 19.3332 9.03885 19.2059 8.81225 18.9793C8.58564 18.7527 8.45833 18.4453 8.45833 18.1248C8.45833 17.8044 8.58564 17.497 8.81225 17.2704C9.03885 17.0438 9.3462 16.9165 9.66667 16.9165ZM14.5 16.9165C14.8205 16.9165 15.1278 17.0438 15.3544 17.2704C15.581 17.497 15.7083 17.8044 15.7083 18.1248C15.7083 18.4453 15.581 18.7527 15.3544 18.9793C15.1278 19.2059 14.8205 19.3332 14.5 19.3332C14.1795 19.3332 13.8722 19.2059 13.6456 18.9793C13.419 18.7527 13.2917 18.4453 13.2917 18.1248C13.2917 17.8044 13.419 17.497 13.6456 17.2704C13.8722 17.0438 14.1795 16.9165 14.5 16.9165ZM19.3333 16.9165C19.6538 16.9165 19.9611 17.0438 20.1878 17.2704C20.4144 17.497 20.5417 17.8044 20.5417 18.1248C20.5417 18.4453 20.4144 18.7527 20.1878 18.9793C19.9611 19.2059 19.6538 19.3332 19.3333 19.3332C19.0129 19.3332 18.7055 19.2059 18.4789 18.9793C18.2523 18.7527 18.125 18.4453 18.125 18.1248C18.125 17.8044 18.2523 17.497 18.4789 17.2704C18.7055 17.0438 19.0129 16.9165 19.3333 16.9165ZM22.9583 14.4998H6.04167V12.0832H22.9583V14.4998ZM21.6533 10.8748H7.34667C7.85417 7.854 10.2708 5.43734 13.2917 4.92984V2.4165H15.7083V4.92984C18.7292 5.43734 21.1458 7.854 21.6533 10.8748Z" fill="#6B51EF"/>
</svg>
