<svg width="30" height="42" viewBox="0 0 30 42" fill="none" xmlns="http://www.w3.org/2000/svg">
<g clip-path="url(#clip0_651_2501)">
<path d="M5.82175 40.0945C5.21401 40.0919 4.61112 39.9865 4.03881 39.7829C3.11039 39.4405 2.31119 38.8204 1.75091 38.0077C1.19063 37.195 0.896738 36.2295 0.90958 35.2439V5.75998C0.892988 4.75379 1.19713 3.76826 1.77831 2.94492C2.3595 2.12158 3.18783 1.5028 4.14434 1.17745C4.68553 0.999189 5.2517 0.907487 5.82175 0.905762C7.12454 0.905762 8.37397 1.421 9.29518 2.33814C10.2164 3.25527 10.7339 4.49918 10.7339 5.7962V10.0382L18.4697 2.34029C19.3927 1.42325 20.6439 0.908819 21.9479 0.910178C23.2519 0.911536 24.502 1.42857 25.4231 2.34754C26.3443 3.2665 26.861 4.51213 26.8596 5.81038C26.8582 7.10864 26.3389 8.35318 25.4159 9.27023L12.1712 22.4563C11.714 22.9091 11.3515 23.4477 11.1048 24.0409C10.8581 24.6341 10.732 25.2702 10.7339 25.9122V35.2185C10.7339 36.5156 10.2164 37.7595 9.29518 38.6766C8.37397 39.5937 7.12454 40.109 5.82175 40.109V40.0945ZM21.9446 1.63027C21.4734 1.63148 21.0055 1.70729 20.5583 1.85487C19.9624 2.0582 19.4236 2.39965 18.9864 2.85107L2.86353 18.899C2.08184 19.6816 1.64307 20.7404 1.64307 21.8441C1.64307 22.9478 2.08184 24.0066 2.86353 24.7892C3.13798 25.0582 3.44617 25.2908 3.78047 25.4811C4.01125 25.6104 4.2552 25.7148 4.5082 25.7927C4.93592 25.9372 5.38462 26.0106 5.83631 26.01C6.09773 26.01 6.35854 25.9846 6.61498 25.9339C7.44221 25.7831 8.20371 25.3851 8.79816 24.7928L24.9501 8.69424C25.5201 8.14281 25.9136 7.43597 26.0813 6.66253C26.249 5.88909 26.1833 5.08357 25.8925 4.34718C25.5899 3.54844 25.05 2.8605 24.3446 2.37509C23.6393 1.88967 22.802 1.62986 21.9446 1.63027Z" fill="#6B51EF"/>
<path d="M5.82182 1.81104C6.34744 1.81104 6.86791 1.91411 7.35351 2.11436C7.83912 2.31462 8.28035 2.60813 8.65202 2.97816C9.02369 3.34818 9.31851 3.78746 9.51965 4.27092C9.7208 4.75438 9.82433 5.27255 9.82433 5.79584V10.6899L2.20864 18.2647C2.06784 18.4054 1.93542 18.5541 1.81203 18.7102V5.75961C1.80154 4.94301 2.04824 4.14364 2.51747 3.47377C2.9867 2.8039 3.65489 2.29718 4.42822 2.02477C4.87768 1.87568 5.34807 1.79865 5.82182 1.79655V1.81104ZM9.90074 24.9446C9.84957 25.2548 9.82401 25.5686 9.82433 25.8829V35.1892C9.82433 36.246 9.40264 37.2596 8.65202 38.0069C7.9014 38.7542 6.88335 39.174 5.82182 39.174C5.31682 39.172 4.81591 39.0838 4.34089 38.9132C3.58992 38.6335 2.94434 38.1292 2.49284 37.4695C2.04134 36.8098 1.80605 36.0272 1.81931 35.229V24.9809C1.94035 25.1379 2.07034 25.2879 2.20864 25.43C2.53429 25.7552 2.90127 26.0365 3.30024 26.2669C3.57018 26.4151 3.85416 26.5364 4.14804 26.6291C4.67129 26.8031 5.21921 26.8924 5.77088 26.8936C6.09329 26.895 6.41506 26.8647 6.73148 26.803C7.73364 26.6123 8.6552 26.1265 9.37677 25.4083L9.8498 24.9374L9.90074 24.9446ZM21.8937 -0.0219727C20.3627 -0.00543817 18.9004 0.613096 17.8257 1.69874L11.64 7.85707V5.79584C11.64 4.25862 11.0266 2.78437 9.93484 1.69739C8.84303 0.610418 7.36222 -0.000237562 5.81818 -0.000237562C5.15164 0.00233991 4.4897 0.109933 3.85695 0.318547C2.72205 0.706295 1.73847 1.43975 1.04558 2.415C0.352685 3.39026 -0.0143942 4.55785 -0.00365248 5.75237V35.2435C-0.014755 36.4168 0.338693 37.5649 1.0083 38.5305C1.6779 39.4961 2.63092 40.232 3.73687 40.6375C4.4065 40.8739 5.11134 40.9964 5.82182 40.9998C7.36586 40.9998 8.84667 40.3891 9.93847 39.3021C11.0303 38.2152 11.6437 36.7409 11.6437 35.2037V25.8974C11.6443 24.8416 12.0656 23.8293 12.8153 23.0826L14.3799 21.5249L15.4096 20.4998L17.6729 18.2465L26.0418 9.89656C26.8567 9.08617 27.4118 8.05333 27.6369 6.92874C27.8621 5.80415 27.7471 4.63834 27.3065 3.57883C26.8659 2.51932 26.1196 1.61373 25.1619 0.976635C24.2042 0.33954 23.0783 -0.000422949 21.9265 -0.000237562L21.8937 -0.0219727ZM5.82182 25.104C5.46556 25.1041 5.11165 25.0466 4.77389 24.9338C4.58611 24.8725 4.40459 24.7936 4.23173 24.6983C3.96593 24.5488 3.72122 24.3649 3.504 24.1513C3.14771 23.7958 2.87873 23.3631 2.71806 22.887C2.50168 22.2218 2.50168 21.5055 2.71806 20.8403C2.87873 20.3503 3.15295 19.9048 3.51856 19.5398L19.6268 3.47379C19.9668 3.12676 20.3827 2.86268 20.8421 2.70218C21.194 2.58426 21.5625 2.52311 21.9337 2.52106C22.6119 2.52554 23.2724 2.73608 23.8271 3.1245C24.3818 3.51292 24.8041 4.06071 25.0375 4.69458C25.2581 5.26462 25.3068 5.88638 25.1775 6.48357C25.0483 7.08075 24.7467 7.62736 24.3098 8.05631L8.13964 24.1513C7.67585 24.614 7.08214 24.9259 6.43675 25.0461C6.2342 25.0856 6.02822 25.105 5.82182 25.104Z" fill="#6B51EF"/>
<path d="M23.1817 40.0945C22.3193 40.0932 21.4723 39.8668 20.7253 39.4377C19.9782 39.0086 19.3573 38.392 18.9245 37.6493L14.7182 30.4042C14.0668 29.2806 13.8905 27.9454 14.2279 26.6923C14.5653 25.4392 15.389 24.3709 16.5176 23.7224C17.6462 23.0739 18.9873 22.8983 20.2459 23.2342C21.5046 23.5702 22.5776 24.3902 23.229 25.5138L27.4317 32.7589C27.8626 33.502 28.0896 34.3449 28.0898 35.2031C28.09 36.0612 27.8633 36.9042 27.4327 37.6475C27.0021 38.3908 26.3825 39.0083 25.6364 39.4378C24.8902 39.8673 24.0436 40.0938 23.1817 40.0945Z" fill="#6B51EF"/>
<path d="M18.9645 23.9666C19.6682 23.9672 20.3593 24.1516 20.969 24.5012C21.5787 24.8508 22.0857 25.3534 22.4395 25.959L26.6457 33.204C27.1765 34.1197 27.3202 35.2077 27.0452 36.2287C26.7702 37.2498 26.099 38.1203 25.1793 38.6487C24.2597 39.1772 23.1668 39.3202 22.1412 39.0464C21.1156 38.7726 20.2412 38.1045 19.7105 37.1889L15.5042 29.9438C15.1532 29.3384 14.9682 28.6518 14.968 27.9528C14.9677 27.2538 15.1521 26.5671 15.5027 25.9615C15.8533 25.3559 16.3577 24.8528 16.9654 24.5026C17.573 24.1525 18.2625 23.9676 18.9645 23.9666ZM18.9645 22.1553C17.9431 22.1563 16.9399 22.4249 16.0557 22.934C15.1715 23.4432 14.4374 24.175 13.9272 25.0559C13.4169 25.9368 13.1484 26.9359 13.1487 27.9528C13.1489 28.9698 13.4179 29.9687 13.9287 30.8494L18.1349 38.0945C18.512 38.7635 19.0187 39.3514 19.6257 39.824C20.2327 40.2966 20.9279 40.6446 21.671 40.8477C22.4141 41.0508 23.1903 41.105 23.9545 41.0072C24.7188 40.9093 25.456 40.6614 26.1233 40.2778C26.7907 39.8942 27.3748 39.3825 27.842 38.7724C28.3092 38.1623 28.6501 37.466 28.8449 36.7237C29.0397 35.9815 29.0846 35.2081 28.9769 34.4484C28.8692 33.6888 28.6111 32.958 28.2176 32.2984L24.015 25.0533C23.5033 24.1709 22.767 23.4385 21.8803 22.9297C20.9937 22.4209 19.9879 22.1538 18.9645 22.1553Z" fill="#6B51EF"/>
</g>
<defs>
<clipPath id="clip0_651_2501">
<rect width="29" height="41" fill="white"/>
</clipPath>
</defs>
</svg>
