<svg width="29" height="29" viewBox="0 0 29 29" fill="none" xmlns="http://www.w3.org/2000/svg">
<path d="M14.4998 2.4165C7.854 2.4165 2.4165 7.854 2.4165 14.4998C2.4165 21.1457 7.854 26.5832 14.4998 26.5832C21.1457 26.5832 26.5832 21.1457 26.5832 14.4998C26.5832 7.854 21.1457 2.4165 14.4998 2.4165ZM12.7903 19.8344C12.3998 20.2249 11.7666 20.2249 11.3761 19.8344L6.74861 15.2069C6.35809 14.8164 6.35809 14.1833 6.74861 13.7927L7.03913 13.5022C7.42927 13.1121 8.06168 13.1116 8.45236 13.5012L11.3761 16.4168C11.7667 16.8064 12.3992 16.8059 12.7893 16.4158L20.5448 8.66028C20.9363 8.26878 21.5714 8.2699 21.9615 8.66278L22.2561 8.95941C22.6442 9.35033 22.6431 9.98157 22.2536 10.3711L12.7903 19.8344Z" fill="#6B51EF"/>
</svg>
