<svg width="35" height="33" viewBox="0 0 35 33" fill="none" xmlns="http://www.w3.org/2000/svg">
<mask id="path-1-inside-1_811_1718" fill="white">
<path d="M17.5003 26.5028L28.0578 32.8748L25.2562 20.8653L34.5837 12.7848L22.3007 11.7257L17.5003 0.416504L12.6999 11.7257L0.416992 12.7848L9.72741 20.8653L6.94283 32.8748L17.5003 26.5028Z"/>
</mask>
<path d="M17.5003 26.5028L41.7869 -13.7361L17.5003 -28.3945L-6.78622 -13.7361L17.5003 26.5028ZM28.0578 32.8748L3.77128 73.1137L99.1342 130.671L73.8288 22.1971L28.0578 32.8748ZM25.2562 20.8653L-5.51815 -14.6586L-26.9598 3.91632L-20.5149 31.543L25.2562 20.8653ZM34.5837 12.7848L65.358 48.3087L149.391 -24.4896L38.6215 -34.0414L34.5837 12.7848ZM22.3007 11.7257L-20.963 30.0899L-9.91305 56.1223L18.2629 58.5519L22.3007 11.7257ZM17.5003 0.416504L60.7641 -17.9477L17.5003 -119.872L-25.7635 -17.9477L17.5003 0.416504ZM12.6999 11.7257L16.7378 58.5519L44.9137 56.1223L55.9637 30.0899L12.6999 11.7257ZM0.416992 12.7848L-3.62087 -34.0414L-114.251 -24.5017L-30.3895 48.2807L0.416992 12.7848ZM9.72741 20.8653L55.5128 31.4812L61.9041 3.91631L40.5339 -14.6306L9.72741 20.8653ZM6.94283 32.8748L-38.8426 22.2589L-63.9542 130.563L31.2294 73.1137L6.94283 32.8748ZM-6.78622 66.7416L3.77128 73.1137L52.3444 -7.36399L41.7869 -13.7361L-6.78622 66.7416ZM73.8288 22.1971L71.0272 10.1875L-20.5149 31.543L-17.7132 43.5526L73.8288 22.1971ZM56.0305 56.3891L65.358 48.3087L3.80935 -22.739L-5.51815 -14.6586L56.0305 56.3891ZM38.6215 -34.0414L26.3386 -35.1006L18.2629 58.5519L30.5458 59.6111L38.6215 -34.0414ZM65.5645 -6.63856L60.7641 -17.9477L-25.7635 18.7807L-20.963 30.0899L65.5645 -6.63856ZM-25.7635 -17.9477L-30.5639 -6.63856L55.9637 30.0899L60.7641 18.7807L-25.7635 -17.9477ZM8.66204 -35.1006L-3.62087 -34.0414L4.45486 59.6111L16.7378 58.5519L8.66204 -35.1006ZM-30.3895 48.2807L-21.0791 56.3611L40.5339 -14.6306L31.2235 -22.711L-30.3895 48.2807ZM-36.058 10.2493L-38.8426 22.2589L52.7282 43.4908L55.5128 31.4812L-36.058 10.2493ZM31.2294 73.1137L41.7869 66.7416L-6.78622 -13.7361L-17.3437 -7.36399L31.2294 73.1137Z" fill="#FCFF60" mask="url(#path-1-inside-1_811_1718)"/>
</svg>
