<svg width="32" height="31" viewBox="0 0 32 31" fill="none" xmlns="http://www.w3.org/2000/svg">
<circle cx="16" cy="15.5" r="15.5" fill="white"/>
<path d="M14.283 11.2L11.443 13.7L9.74305 11.74L14.363 7.84H17.163V22H14.283V11.2ZM21.679 20.28C21.679 20.0267 21.7257 19.7867 21.819 19.56C21.9123 19.3333 22.039 19.14 22.199 18.98C22.3723 18.8067 22.5723 18.6733 22.799 18.58C23.0257 18.4867 23.2657 18.44 23.519 18.44C23.7723 18.44 24.0123 18.4867 24.239 18.58C24.4657 18.6733 24.659 18.8067 24.819 18.98C24.9923 19.14 25.1257 19.3333 25.219 19.56C25.3123 19.7867 25.359 20.0267 25.359 20.28C25.359 20.5333 25.3123 20.7733 25.219 21C25.1257 21.2267 24.9923 21.4267 24.819 21.6C24.659 21.76 24.4657 21.8867 24.239 21.98C24.0123 22.0733 23.7723 22.12 23.519 22.12C23.2657 22.12 23.0257 22.0733 22.799 21.98C22.5723 21.8867 22.3723 21.76 22.199 21.6C22.039 21.4267 21.9123 21.2267 21.819 21C21.7257 20.7733 21.679 20.5333 21.679 20.28Z" fill="#6B51EF"/>
</svg>
