<svg width="32" height="31" viewBox="0 0 32 31" fill="none" xmlns="http://www.w3.org/2000/svg">
<circle cx="16" cy="15.5" r="15.5" fill="white"/>
<path d="M12.843 13.42H13.823C14.103 13.42 14.3764 13.4 14.643 13.36C14.9097 13.32 15.1497 13.2467 15.363 13.14C15.5897 13.02 15.7697 12.86 15.903 12.66C16.0364 12.4467 16.103 12.1733 16.103 11.84C16.103 11.4133 15.9297 11.06 15.583 10.78C15.2497 10.5 14.8364 10.36 14.343 10.36C13.8764 10.36 13.4897 10.4867 13.183 10.74C12.8764 10.9933 12.6764 11.3067 12.583 11.68L9.28305 11C9.44305 10.3867 9.68305 9.86667 10.003 9.44C10.323 9 10.703 8.64667 11.143 8.38C11.583 8.11333 12.0697 7.92 12.603 7.8C13.1497 7.66667 13.723 7.6 14.323 7.6C14.9497 7.6 15.5497 7.68 16.123 7.84C16.7097 7.98667 17.223 8.22667 17.663 8.56C18.103 8.88 18.4497 9.28667 18.703 9.78C18.9697 10.2733 19.103 10.86 19.103 11.54C19.103 12.3267 18.8964 13 18.483 13.56C18.0697 14.12 17.4697 14.48 16.683 14.64V14.7C17.1097 14.7533 17.483 14.88 17.803 15.08C18.1364 15.28 18.4164 15.5267 18.643 15.82C18.8697 16.1133 19.043 16.4467 19.163 16.82C19.283 17.1933 19.343 17.5867 19.343 18C19.343 18.7067 19.203 19.3267 18.923 19.86C18.6564 20.3933 18.2897 20.84 17.823 21.2C17.3697 21.5467 16.8297 21.8067 16.203 21.98C15.5897 22.1533 14.9364 22.24 14.243 22.24C12.9764 22.24 11.883 21.9467 10.963 21.36C10.0564 20.7733 9.45638 19.8467 9.16305 18.58L12.323 17.84C12.4297 18.3467 12.643 18.7467 12.963 19.04C13.2964 19.3333 13.783 19.48 14.423 19.48C15.0764 19.48 15.5564 19.3133 15.863 18.98C16.183 18.6333 16.343 18.1933 16.343 17.66C16.343 17.26 16.2564 16.9533 16.083 16.74C15.923 16.5133 15.7097 16.3467 15.443 16.24C15.1764 16.1333 14.8764 16.0733 14.543 16.06C14.2097 16.0333 13.8764 16.02 13.543 16.02H12.843V13.42ZM21.679 20.28C21.679 20.0267 21.7257 19.7867 21.819 19.56C21.9123 19.3333 22.039 19.14 22.199 18.98C22.3723 18.8067 22.5723 18.6733 22.799 18.58C23.0257 18.4867 23.2657 18.44 23.519 18.44C23.7723 18.44 24.0123 18.4867 24.239 18.58C24.4657 18.6733 24.659 18.8067 24.819 18.98C24.9923 19.14 25.1257 19.3333 25.219 19.56C25.3123 19.7867 25.359 20.0267 25.359 20.28C25.359 20.5333 25.3123 20.7733 25.219 21C25.1257 21.2267 24.9923 21.4267 24.819 21.6C24.659 21.76 24.4657 21.8867 24.239 21.98C24.0123 22.0733 23.7723 22.12 23.519 22.12C23.2657 22.12 23.0257 22.0733 22.799 21.98C22.5723 21.8867 22.3723 21.76 22.199 21.6C22.039 21.4267 21.9123 21.2267 21.819 21C21.7257 20.7733 21.679 20.5333 21.679 20.28Z" fill="#6B51EF"/>
</svg>
