<svg width="32" height="31" viewBox="0 0 32 31" fill="none" xmlns="http://www.w3.org/2000/svg">
<circle cx="16" cy="15.5" r="15.5" fill="white"/>
<path d="M9.50305 18.82L15.003 13.88C15.283 13.6267 15.563 13.34 15.843 13.02C16.123 12.7 16.263 12.3267 16.263 11.9C16.263 11.42 16.0897 11.0467 15.743 10.78C15.3964 10.5 14.9897 10.36 14.523 10.36C13.963 10.36 13.523 10.5333 13.203 10.88C12.8964 11.2267 12.723 11.6533 12.683 12.16L9.68305 11.94C9.72305 11.2067 9.87638 10.5733 10.143 10.04C10.4097 9.49333 10.763 9.04 11.203 8.68C11.643 8.32 12.1564 8.05333 12.743 7.88C13.343 7.69333 13.9897 7.6 14.683 7.6C15.323 7.6 15.923 7.69333 16.483 7.88C17.043 8.05333 17.5297 8.32 17.943 8.68C18.3564 9.02667 18.6764 9.46667 18.903 10C19.143 10.5333 19.263 11.1533 19.263 11.86C19.263 12.3133 19.2164 12.7267 19.123 13.1C19.0297 13.46 18.8964 13.7933 18.723 14.1C18.563 14.3933 18.3697 14.6667 18.143 14.92C17.9164 15.1733 17.6697 15.42 17.403 15.66L13.103 19.36H19.383V22H9.50305V18.82ZM21.679 20.28C21.679 20.0267 21.7257 19.7867 21.819 19.56C21.9123 19.3333 22.039 19.14 22.199 18.98C22.3723 18.8067 22.5723 18.6733 22.799 18.58C23.0257 18.4867 23.2657 18.44 23.519 18.44C23.7723 18.44 24.0123 18.4867 24.239 18.58C24.4657 18.6733 24.659 18.8067 24.819 18.98C24.9923 19.14 25.1257 19.3333 25.219 19.56C25.3123 19.7867 25.359 20.0267 25.359 20.28C25.359 20.5333 25.3123 20.7733 25.219 21C25.1257 21.2267 24.9923 21.4267 24.819 21.6C24.659 21.76 24.4657 21.8867 24.239 21.98C24.0123 22.0733 23.7723 22.12 23.519 22.12C23.2657 22.12 23.0257 22.0733 22.799 21.98C22.5723 21.8867 22.3723 21.76 22.199 21.6C22.039 21.4267 21.9123 21.2267 21.819 21C21.7257 20.7733 21.679 20.5333 21.679 20.28Z" fill="#6B51EF"/>
</svg>
