<svg width="29" height="29" viewBox="0 0 29 29" fill="none" xmlns="http://www.w3.org/2000/svg">
<path d="M7.24996 16.9165H9.66663L13.2916 20.5415H10.875L7.24996 16.9165ZM4.83329 4.83317H6.04163V3.62484C6.04163 3.30437 6.16893 2.99702 6.39554 2.77042C6.62215 2.54381 6.92949 2.4165 7.24996 2.4165H12.0833C12.4038 2.4165 12.7111 2.54381 12.9377 2.77042C13.1643 2.99702 13.2916 3.30437 13.2916 3.62484V4.83317H15.7083V3.62484C15.7083 3.30437 15.8356 2.99702 16.0622 2.77042C16.2888 2.54381 16.5962 2.4165 16.9166 2.4165H21.75C22.0704 2.4165 22.3778 2.54381 22.6044 2.77042C22.831 2.99702 22.9583 3.30437 22.9583 3.62484V4.83317H24.1666C24.8076 4.83317 25.4223 5.08778 25.8755 5.541C26.3287 5.99421 26.5833 6.6089 26.5833 7.24984V22.9582C26.5833 23.5991 26.3287 24.2138 25.8755 24.667C25.4223 25.1202 24.8076 25.3748 24.1666 25.3748V26.5832H20.5416V25.3748H8.45829V26.5832H4.83329V25.3748C4.19235 25.3748 3.57766 25.1202 3.12445 24.667C2.67124 24.2138 2.41663 23.5991 2.41663 22.9582V7.24984C2.41663 6.6089 2.67124 5.99421 3.12445 5.541C3.57766 5.08778 4.19235 4.83317 4.83329 4.83317ZM21.75 8.45817C22.0704 8.45817 22.3778 8.58548 22.6044 8.81208C22.831 9.03869 22.9583 9.34603 22.9583 9.6665C22.9583 9.98697 22.831 10.2943 22.6044 10.5209C22.3778 10.7475 22.0704 10.8748 21.75 10.8748C21.4295 10.8748 21.1221 10.7475 20.8955 10.5209C20.6689 10.2943 20.5416 9.98697 20.5416 9.6665C20.5416 9.34603 20.6689 9.03869 20.8955 8.81208C21.1221 8.58548 21.4295 8.45817 21.75 8.45817ZM16.9166 8.45817C17.2371 8.45817 17.5444 8.58548 17.771 8.81208C17.9977 9.03869 18.125 9.34603 18.125 9.6665C18.125 9.98697 17.9977 10.2943 17.771 10.5209C17.5444 10.7475 17.2371 10.8748 16.9166 10.8748C16.5962 10.8748 16.2888 10.7475 16.0622 10.5209C15.8356 10.2943 15.7083 9.98697 15.7083 9.6665C15.7083 9.34603 15.8356 9.03869 16.0622 8.81208C16.2888 8.58548 16.5962 8.45817 16.9166 8.45817ZM24.1666 7.24984H4.83329V12.0832H24.1666V7.24984ZM4.83329 22.9582H24.1666V14.4998H4.83329V22.9582ZM7.24996 8.45817C7.57043 8.45817 7.87777 8.58548 8.10438 8.81208C8.33099 9.03869 8.45829 9.34603 8.45829 9.6665C8.45829 9.98697 8.33099 10.2943 8.10438 10.5209C7.87777 10.7475 7.57043 10.8748 7.24996 10.8748C6.92949 10.8748 6.62215 10.7475 6.39554 10.5209C6.16893 10.2943 6.04163 9.98697 6.04163 9.6665C6.04163 9.34603 6.16893 9.03869 6.39554 8.81208C6.62215 8.58548 6.92949 8.45817 7.24996 8.45817ZM15.7083 16.9165H18.125L21.75 20.5415H19.3333L15.7083 16.9165Z" fill="#6B51EF"/>
</svg>
