<svg width="29" height="29" viewBox="0 0 29 29" fill="none" xmlns="http://www.w3.org/2000/svg">
<path d="M10.875 26.5832H20.5417V23.5623C23.4538 21.5928 25.375 18.2698 25.375 14.4998V4.83317C25.375 4.19223 25.1204 3.57754 24.6672 3.12433C24.214 2.67112 23.5993 2.4165 22.9583 2.4165H18.125C17.4841 2.4165 16.8694 2.67112 16.4162 3.12433C15.9629 3.57754 15.7083 4.19223 15.7083 4.83317V14.4998H3.625C3.625 18.2336 6.04167 21.7498 10.875 23.5623V26.5832ZM6.39208 16.9165H22.6079C22.2685 18.0538 21.6941 19.1071 20.9219 20.0084C20.1496 20.9097 19.1968 21.6388 18.125 22.1486V24.1665H13.2917V22.1486C10.875 21.7498 7.08083 19.2244 6.39208 16.9165ZM18.125 4.83317H22.9583V14.4998H18.125V4.83317ZM19.3333 6.0415V9.6665H21.75V6.0415H19.3333Z" fill="#6B51EF"/>
</svg>
