<svg width="29" height="29" viewBox="0 0 29 29" fill="none" xmlns="http://www.w3.org/2000/svg">
<path d="M17.9196 13.4969C18.8248 14.4048 19.3332 15.6345 19.3332 16.9165C19.3332 18.1985 18.8248 19.4283 17.9196 20.3361C17.0118 21.2413 15.7821 21.7496 14.5 21.7496C13.218 21.7496 11.9883 21.2413 11.0805 20.3361L17.9196 13.4969ZM7.25004 2.4165H21.75C22.391 2.4165 23.0057 2.67112 23.4589 3.12433C23.9121 3.57754 24.1667 4.19223 24.1667 4.83317V24.1665C24.1667 24.8074 23.9121 25.4221 23.4589 25.8753C23.0057 26.3286 22.391 26.5832 21.75 26.5832H7.25004C6.6091 26.5832 5.99441 26.3286 5.5412 25.8753C5.08799 25.4221 4.83337 24.8074 4.83337 24.1665V4.83317C4.83337 4.19223 5.08799 3.57754 5.5412 3.12433C5.99441 2.67112 6.6091 2.4165 7.25004 2.4165ZM8.45837 4.83317C8.1379 4.83317 7.83056 4.96048 7.60395 5.18708C7.37735 5.41369 7.25004 5.72103 7.25004 6.0415C7.25004 6.36197 7.37735 6.66932 7.60395 6.89592C7.83056 7.12253 8.1379 7.24984 8.45837 7.24984C8.77884 7.24984 9.08619 7.12253 9.31279 6.89592C9.5394 6.66932 9.66671 6.36197 9.66671 6.0415C9.66671 5.72103 9.5394 5.41369 9.31279 5.18708C9.08619 4.96048 8.77884 4.83317 8.45837 4.83317ZM12.0834 4.83317C11.7629 4.83317 11.4556 4.96048 11.229 5.18708C11.0023 5.41369 10.875 5.72103 10.875 6.0415C10.875 6.36197 11.0023 6.66932 11.229 6.89592C11.4556 7.12253 11.7629 7.24984 12.0834 7.24984C12.4038 7.24984 12.7112 7.12253 12.9378 6.89592C13.1644 6.66932 13.2917 6.36197 13.2917 6.0415C13.2917 5.72103 13.1644 5.41369 12.9378 5.18708C12.7112 4.96048 12.4038 4.83317 12.0834 4.83317ZM14.5 9.6665C12.5772 9.6665 10.7332 10.4303 9.37352 11.79C8.01388 13.1496 7.25004 14.9937 7.25004 16.9165C7.25004 18.8393 8.01388 20.6834 9.37352 22.043C10.7332 23.4027 12.5772 24.1665 14.5 24.1665C16.4229 24.1665 18.2669 23.4027 19.6266 22.043C20.9862 20.6834 21.75 18.8393 21.75 16.9165C21.75 14.9937 20.9862 13.1496 19.6266 11.79C18.2669 10.4303 16.4229 9.6665 14.5 9.6665Z" fill="#6B51EF"/>
</svg>
