<svg width="29" height="29" viewBox="0 0 29 29" fill="none" xmlns="http://www.w3.org/2000/svg">
<path d="M14.5 25.375L18.85 19.575C17.6416 18.6688 16.1312 18.125 14.5 18.125C12.8687 18.125 11.3583 18.6688 10.15 19.575L14.5 25.375ZM14.5 3.625C9.6062 3.625 5.08703 5.24417 1.44995 7.975L3.62495 10.875C6.64578 8.60333 10.4158 7.25 14.5 7.25C18.5841 7.25 22.3541 8.60333 25.375 10.875L27.5499 7.975C23.9129 5.24417 19.3937 3.625 14.5 3.625ZM14.5 10.875C11.2375 10.875 8.2287 11.9504 5.79995 13.775L7.97495 16.675C9.78745 15.3096 12.047 14.5 14.5 14.5C16.9529 14.5 19.2125 15.3096 21.025 16.675L23.2 13.775C20.7712 11.9504 17.7625 10.875 14.5 10.875Z" fill="#6B51EF"/>
</svg>
